<?xml version="1.0" encoding="UTF-8" standalone="no"?>
<svg
   xmlns:osb="http://www.openswatchbook.org/uri/2009/osb"
   xmlns:dc="http://purl.org/dc/elements/1.1/"
   xmlns:cc="http://creativecommons.org/ns#"
   xmlns:rdf="http://www.w3.org/1999/02/22-rdf-syntax-ns#"
   xmlns:svg="http://www.w3.org/2000/svg"
   xmlns="http://www.w3.org/2000/svg"
   xmlns:sodipodi="http://sodipodi.sourceforge.net/DTD/sodipodi-0.dtd"
   xmlns:inkscape="http://www.inkscape.org/namespaces/inkscape"
   width="48"
   height="48"
   viewBox="0 0 12.7 12.7"
   version="1.1"
   id="svg8"
   inkscape:version="1.0.1 (3bc2e813f5, 2020-09-07)"
   sodipodi:docname="metra-logo48x48.svg">
  <defs
     id="defs2">
    <linearGradient
       id="linearGradient851"
       osb:paint="solid">
      <stop
         style="stop-color:#000000;stop-opacity:1;"
         offset="0"
         id="stop849" />
    </linearGradient>
  </defs>
  <sodipodi:namedview
     id="base"
     pagecolor="#ffffff"
     bordercolor="#666666"
     borderopacity="1.0"
     inkscape:pageopacity="0.0"
     inkscape:pageshadow="2"
     inkscape:zoom="22.4"
     inkscape:cx="16.87506"
     inkscape:cy="22.949602"
     inkscape:document-units="mm"
     inkscape:current-layer="layer1"
     inkscape:document-rotation="0"
     showgrid="false"
     units="px"
     inkscape:window-width="3440"
     inkscape:window-height="1383"
     inkscape:window-x="0"
     inkscape:window-y="27"
     inkscape:window-maximized="1"
     inkscape:snap-text-baseline="true" />
  <metadata
     id="metadata5">
    <rdf:RDF>
      <cc:Work
         rdf:about="">
        <dc:format>image/svg+xml</dc:format>
        <dc:type
           rdf:resource="http://purl.org/dc/dcmitype/StillImage" />
        <dc:title></dc:title>
      </cc:Work>
    </rdf:RDF>
  </metadata>
  <g
     inkscape:label="Layer 1"
     inkscape:groupmode="layer"
     id="layer1">
    <text
       xml:space="preserve"
       style="font-style:normal;font-weight:normal;font-size:10.5833px;line-height:1.25;font-family:Georgia;fill:#000000;fill-opacity:1;stroke:none;stroke-width:0.264583;-inkscape-font-specification:'Georgia, Normal';font-stretch:normal;font-variant:normal;font-variant-ligatures:normal;font-variant-caps:normal;font-variant-numeric:normal;font-variant-east-asian:normal;"
       x="2.0036554"
       y="8.9369011"
       id="text18"><tspan
         sodipodi:role="line"
         id="tspan16"
         x="2.0036554"
         y="8.9369011"
         style="stroke-width:0.264583;-inkscape-font-specification:'Georgia, Normal';font-family:Georgia;font-weight:normal;font-style:normal;font-stretch:normal;font-variant:normal;font-size:10.58330002px;font-variant-ligatures:normal;font-variant-caps:normal;font-variant-numeric:normal;font-variant-east-asian:normal;">m</tspan></text>
    <rect
       style="fill:none;fill-opacity:1;fill-rule:evenodd;stroke:#000000;stroke-width:0.909826;stroke-miterlimit:4;stroke-dasharray:none;stroke-opacity:1"
       id="rect24"
       width="11.790174"
       height="11.790174"
       x="0.45491272"
       y="0.45491272" />
    <path
       style="fill:#ffffff;fill-opacity:1;stroke:#000000;stroke-width:0.16198;stroke-miterlimit:4;stroke-dasharray:none;stroke-opacity:1"
       d="M 3.4598816,23.998709 V 3.4406729 H 23.995596 44.53131 V 23.998709 44.556744 H 23.995596 3.4598816 Z m 14.9107144,9.135232 v -0.663874 l -0.320565,-0.03159 c -0.774452,-0.07631 -1.647184,-0.397058 -2.023032,-0.743503 -0.237698,-0.219102 -0.434178,-0.576478 -0.507954,-0.923911 -0.03571,-0.168156 -0.05024,-1.870322 -0.05024,-5.885773 v -5.649201 l 0.345982,-0.473904 c 0.771725,-1.057057 1.4306,-1.588734 2.50102,-2.018188 0.729813,-0.292802 1.136679,-0.373082 1.907463,-0.376366 0.68377,-0.0029 0.82694,0.02151 1.292142,0.220462 0.470208,0.20109 1.093424,0.773534 1.40226,1.288023 0.305039,0.508165 0.501989,1.140734 0.583913,1.875425 0.06339,0.56849 0.06587,10.900349 0.0027,11.23884 -0.06511,0.348879 -0.285676,0.768788 -0.500329,0.952523 -0.311495,0.266628 -0.871689,0.419955 -1.809704,0.495324 l -0.368303,0.02959 v 0.664996 0.664997 h 4.620536 4.620535 V 33.13621 32.474604 l -0.471084,-0.05476 C 28.81906,32.329534 27.97154,31.98506 27.675591,31.639311 27.591721,31.541321 27.47773,31.349064 27.422288,31.212072 l -0.100805,-0.249079 -0.01257,-5.848214 c -0.0069,-3.216518 -0.0025,-5.889478 0.0098,-5.939911 0.03548,-0.145366 0.663843,-0.972237 0.961651,-1.265458 0.999156,-0.983763 2.414728,-1.567777 3.795566,-1.565914 0.799051,0.0011 1.426229,0.243192 1.987302,0.767172 0.707518,0.660744 1.045707,1.344301 1.2044,2.434366 0.06111,0.419745 0.06836,1.179996 0.05743,6.016174 l -0.01252,5.535714 -0.107312,0.266474 c -0.145653,0.361682 -0.477396,0.690967 -0.831571,0.825413 -0.28574,0.108467 -0.787422,0.19573 -1.416027,0.246306 l -0.390625,0.03143 v 0.665636 0.665635 h 4.709821 4.709821 v -0.663859 -0.663859 l -0.502232,-0.05484 c -0.29417,-0.03212 -0.677928,-0.110676 -0.926339,-0.189614 -0.868452,-0.27597 -1.122403,-0.481206 -1.370817,-1.107859 -0.07372,-0.185976 -0.08082,-0.590921 -0.105262,-6.003001 -0.02877,-6.372022 -0.01861,-6.131837 -0.307803,-7.27691 -0.311415,-1.233069 -0.868022,-2.14788 -1.713744,-2.816625 -0.882439,-0.697778 -1.981567,-1.044484 -3.31041,-1.044228 -1.643066,3.12e-4 -2.95211,0.400181 -4.21875,1.288673 -0.605249,0.424556 -0.944761,0.712825 -1.782479,1.513445 l -0.6204,0.592927 -0.113865,-0.248713 c -0.19756,-0.43153 -0.594586,-0.993015 -0.998907,-1.412683 -1.227893,-1.274501 -2.552939,-1.792331 -4.404766,-1.721389 -1.067436,0.04089 -1.979602,0.25596 -2.865522,0.675625 -0.739211,0.350167 -1.313922,0.791678 -2.479833,1.905085 -0.408897,0.390485 -0.765482,0.709972 -0.79241,0.709972 -0.03446,0 -0.04896,-0.407309 -0.04896,-1.375171 V 14.52962 l -0.145089,-0.135477 -0.145089,-0.135478 -3.125,0.213138 c -1.71875,0.117226 -3.1702011,0.214428 -3.2254467,0.216006 -0.09953,0.0028 -0.1004464,0.0089 -0.1004464,0.6661 v 0.663232 l 0.3067585,0.02851 c 0.4141589,0.03849 1.1243366,0.227505 1.4641486,0.389683 0.539762,0.257604 1.019108,0.810267 1.22857,1.416483 l 0.103201,0.29868 v 6.383929 c 0,6.060637 -0.0041,6.397493 -0.08175,6.651786 -0.108535,0.355596 -0.298629,0.645429 -0.53435,0.81471 -0.348782,0.250476 -0.766669,0.349176 -1.8504134,0.437043 L 8.95094,32.467825 v 0.664996 0.664997 h 4.709821 4.709822 z"
       id="path2833"
       transform="scale(0.26458333)" />
  </g>
</svg>
